<?xml version="1.0" standalone="no"?>
<!DOCTYPE svg PUBLIC "-//W3C//DTD SVG 20010904//EN"
 "http://www.w3.org/TR/2001/REC-SVG-20010904/DTD/svg10.dtd">
<svg version="1.0" xmlns="http://www.w3.org/2000/svg"
 width="650.000000pt" height="650.000000pt" viewBox="0 0 650.000000 650.000000"
 preserveAspectRatio="xMidYMid meet">
<metadata>
Created by potrace 1.14, written by Peter Selinger 2001-2017
</metadata>
<g transform="translate(0.000000,650.000000) scale(0.100000,-0.100000)"
fill="#000000" stroke="none">
<path d="M0 3250 l0 -3250 3250 0 3250 0 0 3250 0 3250 -3250 0 -3250 0 0
-3250z m2870 350 c0 -321 4 -507 11 -542 28 -131 111 -239 215 -278 223 -83
437 17 521 245 16 45 18 97 23 555 l5 505 258 3 257 2 0 -875 0 -875 -260 0
-260 0 0 71 c0 69 -1 71 -17 52 -172 -193 -547 -237 -827 -97 -89 45 -117 65
-195 139 -110 104 -177 221 -222 385 -23 83 -23 96 -27 643 l-3 557 260 0 261
0 0 -490z m-1362 -130 c147 -22 281 -42 298 -45 l32 -5 -4 -177 c-2 -96 -5
-177 -6 -179 -6 -5 -600 -75 -605 -71 -2 3 -9 56 -15 119 -8 83 -7 148 2 248
11 129 15 150 26 150 3 0 125 -18 272 -40z m3782 -92 c13 -127 5 -366 -12
-383 -5 -5 -599 62 -604 68 -1 1 -4 82 -6 179 l-6 177 42 6 c22 4 151 24 286
45 135 20 255 38 266 39 20 1 22 -6 34 -131z m-3302 -764 c18 -36 57 -106 87
-155 l54 -90 -237 -177 c-130 -98 -242 -181 -249 -185 -33 -20 -280 425 -248
447 11 8 540 222 555 225 3 1 20 -29 38 -65z"/>
</g>
</svg>
